/* XPM */
static char *_646507648555[] = {
/* columns rows colors chars-per-pixel */
"50 50 221 2 ",
"   c #030406",
".  c #030709",
"X  c #02090C",
"o  c #080A0C",
"O  c #000112",
"+  c #0D0E10",
"@  c #001311",
"#  c #001916",
"$  c #001522",
"%  c #001C22",
"&  c #002526",
"*  c #202624",
"=  c #7B0001",
"-  c #7E0211",
";  c #751E16",
":  c #63261E",
">  c #422F23",
",  c #4E3225",
"<  c #703221",
"1  c #830102",
"2  c #8B0300",
"3  c #8F0906",
"4  c #84040D",
"5  c #940301",
"6  c #9C0200",
"7  c #92130D",
"8  c #98160B",
"9  c #850512",
"0  c #8D0D13",
"q  c #970C15",
"w  c #9B0C12",
"e  c #8C1314",
"r  c #921214",
"t  c #9C1515",
"y  c #951A14",
"u  c #9C1A15",
"i  c #A20000",
"p  c #AB0E00",
"a  c #A60809",
"s  c #B70404",
"d  c #AC1400",
"f  c #AD1B02",
"g  c #A61408",
"h  c #A1160D",
"j  c #A41A0E",
"k  c #AA1E0D",
"l  c #B31C00",
"z  c #BA1D00",
"x  c #B51A08",
"c  c #B11B0E",
"v  c #AC0413",
"b  c #A70815",
"n  c #A40D16",
"m  c #B00016",
"M  c #A51416",
"N  c #AC1513",
"B  c #A51C15",
"V  c #AC1C14",
"C  c #A81018",
"Z  c #B11C12",
"A  c #AD200F",
"S  c #B72200",
"D  c #BB2501",
"F  c #BF2802",
"G  c #B42208",
"H  c #BF290C",
"J  c #AC2015",
"K  c #B52413",
"L  c #BC2414",
"P  c #BC2A16",
"I  c #C70900",
"U  c #C1010F",
"Y  c #D30009",
"T  c #C61405",
"R  c #C51B02",
"E  c #CA1B02",
"W  c #C41D0B",
"Q  c #CA1D0E",
"!  c #D31B00",
"~  c #DC1B00",
"^  c #CE0116",
"/  c #C90818",
"(  c #D50116",
")  c #DC0116",
"_  c #D20318",
"`  c #D10818",
"'  c #C31D19",
"]  c #CA1E19",
"[  c #D71D18",
"{  c #E5000E",
"}  c #E20016",
"|  c #E50117",
" . c #EE001A",
".. c #FF0616",
"X. c #F7001C",
"o. c #F9001D",
"O. c #E21B1B",
"+. c #C42100",
"@. c #CB2707",
"#. c #C3240E",
"$. c #C42B0A",
"%. c #CA2C0E",
"&. c #D22500",
"*. c #DB2400",
"=. c #DC2E01",
"-. c #D72B08",
";. c #D52C0E",
":. c #D63001",
">. c #DE3603",
",. c #DB320D",
"<. c #C42514",
"1. c #CB2514",
"2. c #C22C14",
"3. c #CA2D15",
"4. c #D12314",
"5. c #D32B13",
"6. c #DB2D12",
"7. c #C93115",
"8. c #D63312",
"9. c #DD3412",
"0. c #E22500",
"q. c #E52D02",
"w. c #EA2F02",
"e. c #EA2B0B",
"r. c #E33602",
"t. c #ED3501",
"y. c #E53A04",
"u. c #ED3B01",
"i. c #E4340B",
"p. c #EC330C",
"a. c #E53B0E",
"s. c #ED3C0D",
"d. c #F13D01",
"f. c #F13C0C",
"g. c #EE2F10",
"h. c #E33211",
"j. c #E93511",
"k. c #E33A12",
"l. c #EC3911",
"z. c #EF3E1A",
"x. c #F33011",
"c. c #F13D14",
"v. c #F60026",
"b. c #F90022",
"n. c #FB1F2C",
"m. c #FC1139",
"M. c #FB2C25",
"N. c #F9242B",
"B. c #EE3E2A",
"V. c #F03B20",
"C. c #FB2F36",
"Z. c #FC3436",
"A. c #EE4301",
"S. c #EE4C03",
"D. c #EE420C",
"F. c #F24202",
"G. c #F24B00",
"H. c #F3440D",
"J. c #F9440C",
"K. c #F94C0A",
"L. c #EF520A",
"P. c #F35504",
"I. c #EE4616",
"U. c #EE4C13",
"Y. c #EF4B1B",
"T. c #F44212",
"R. c #F34B14",
"E. c #F34C1B",
"W. c #FA4A1A",
"Q. c #F94D1C",
"!. c #EF5315",
"~. c #F75113",
"^. c #F5521E",
"/. c #FA521E",
"(. c #F35C1A",
"). c #FC5C1C",
"_. c #F36A04",
"`. c #F76419",
"'. c #FB6A19",
"]. c #FA7218",
"[. c #EE4526",
"{. c #EF4E23",
"}. c #F24727",
"|. c #FB4B2B",
" X c #F45321",
".X c #FA5322",
"XX c #F7562A",
"oX c #EE4C30",
"OX c #F24C3B",
"+X c #FD4A3A",
"@X c #EF5535",
"#X c #F15536",
"$X c #F05638",
"%X c #F2593C",
"&X c #FC6A29",
"*X c #F7762F",
"=X c #FF693A",
"-X c #FF713C",
";X c #FA294D",
":X c #EF4C48",
">X c #F74A44",
",X c #EF5A4B",
"<X c #F35644",
"1X c #F25A4D",
"2X c #FC4A53",
"3X c #F55B5C",
"4X c #FA6146",
"5X c #F66756",
"6X c #F67450",
"7X c #F35E67",
"8X c #F6696B",
"9X c #F77668",
"0X c #F46D88",
"qX c #F57484",
"wX c #F5728B",
"eX c #F67A95",
"rX c #F6799A",
"tX c #F67DA2",
"yX c #F77FA6",
"uX c #F681AB",
"iX c #F683B3",
/* pixels */
". .     o o                   o   o                             . . .   o   o   o o         o   o   ",
"  .           o   o   o   o o                                 . X                     o o       o   ",
"              o     o   o +                                     X   . .               o o     o     ",
"  o o   o o   o o   o .   o o   .                             .     . X o o   o o o   o   o       o ",
"o     o     o     o . . X X . . . .           U v b .           . O     . o X .   o   o   o o     o ",
"  o     o o   o o   . o o . . .           s W.K.K.W.W.|.) &       .   X . . X . o   o   o           ",
"  o o     o o     o X .   .           ; M.G.G.P.G.d.d.R.d.}.n               . .     o o   o   o o   ",
"        o   o o o . . . .             M.=.t.tXiXwXu.:XW.Q.s./.{ .       @ . . . o   .   o           ",
"o o   o o   o   o o o               v.r.rXuX7XB.s = a Q 9Xf.6./.|             . X X   .   o     o o ",
"          o   o                   ^ J.d.t.*.*.S.*.= s.k c 9 4 1..XC         . .     X   o   o       ",
"    o     o   o . X   .   <     ; |.f. Xz l G.R 1 ^.].(.x.w 4 9 h.M.        ' ... X .     o   o o   ",
"o o     o   o   .       @ ..    Z.Q.{.y.t %.J Z t [ `.].z.w R.f.x.J.#       . . .   .     o   o     ",
"      o   o   o . .   X       # ).R.%.y.V s.V 2.B 9 [ (.(.5 _.F.3XZ |         X . . X . o   . .   o ",
"  o     o   o o . . X         a J.u.&.g i.K h.B e 3.J e.u.R qXP.5 3 /.:         . . . . X X .       ",
"    o o o   o   o .   X       Y y.R.&.d d.u j.T.e P s.<.F S rX&XI 1 F.)       X X . .   . .     o o ",
"o         o   o . o           2XF.<XiXu.D 2.E.J e u 3.6.D =.1XqX~ R d.b.      . . .   X . .         ",
"        o . o . . X         % (.P.eXeX+.l i.P 7.y 9.B 5.@.p u.uX=.5 ~.Z.          . .   .           ",
"  o     . . . o X           U ~.G.iXL.p S u.P y u h.1.G u.*.s uXG.S u./.n       . .   . . .         ",
"o     o o . X . o .         { ~.&.Q.f p r.+.k ;.u u J A.u.F 2 qX1Xt.l /.(       . . .   > ,         ",
"o     o   o . . .           b.u.E +.6 *.E.OXf H 8.P 4 1 A.u.i 8X0X&.l F.|.      . . .   Z '         ",
"  o     . . . .   . .       +X^.1.1 1 S.5XwXq.>.J ,.d.+.<XyX! :XeXd +.;.&X.       . . . . .       o ",
"      o . . . . .   .       -XR.Z T R S.5XuXq.l j 8 $.u.$XiX:X~ 5XS f 7./.*     . . . . . .         ",
"o       . . .   . . .     $ &Xs.4.3Xt.t.Y.wXE S A ,.A.&.S.iXwX6 z =.h B J.n     . . . . . .     X   ",
"    o   . .   @ #   .     v /.H.1.{.0.~ l 8X2 8 i.<.G S A.yXwXi d d.j 7.f.`       . . . . .   .     ",
"o       o . . <.[ . .     ^ Q.p.K !.{.! z l 1 B s.p.#.z S.oXwXt.l d.8 3.5Xo.      .   o   o   o     ",
"o                 . . .   ) Q.Z L Y.D.= ! 8 k I.s.P ,.&.t.I $XwXw.>.j 2.J.o.    . .     o o       o ",
"        X X   X . .       _ ^.] Q U.L.tXR.p y.D.Y.Y.5.#.+.g E rXA.&.k K Q.}     . . o     o o       ",
"  o o   X   X   .         ( ^.-.W u._.iX,XE u.a.B H.h.#.f R 7XqXP.#Xc 2.Q.t     . . o   o       o o ",
"    o   . . .             o.4Xt.H :.!.[.q.D ,.8.P 7.s.K f }.uXXX!.D.j 1.c.n     . . . .   o     o o ",
"o       . o . . X X       o.5X=.%.a R T :.@.;.,.9.P k.9.8 &.D.D r.>.t L J.n     . . .   o     o     ",
"      o   o o .           { 5Xd.%.q.w.W @X:.G y.5.P B E.e H $.$.i.s.t u T.`     . . . o   o       o ",
"        o   . o           a =X8X$.N ;.U.$X$Xg.>.7 f.1.1.f.u i.- s.l.h.P W.`     . . .   o   o o     ",
"o     o   o   o             s <Xc c Q u.~.5XrX[.M N l.1.<.6.u 4.{.h.4.k..Xb         . X . . o     o ",
"  o     o   o   o             |.h <X#.1XD.<XL.OX7 y u P y J 9.{.j.%X<.E. X_     . . . . . o o     o ",
"  o o     o   o       .       n.f.L y L @.x G (.@.u B J B t XXl.] a.s.{.^. .    . . . X o           ",
"    o   o   o   o o   .       o.9.e e.K B.N n R.(.5.K V B K D.2.P i.Y. X.Xb       . . .   o   o o   ",
"o   o   o     o o X . .       / J.2.H.P V M 5.g.*X^.u.M V.$Xk.H.8.s.(.`.X.      . . X . o       o   ",
"o       o o o   . . X .       O XXf.k.l.L M OXN E.6X8XA.D.s.%Xp.w f.].;X        X .   .   o   o   o ",
"    o o   o   o o   . .         ( .Xk.s.s.3.9 1.V ;.D.s.,.3.B 0 P /.>X            .       o         ",
"  o     o   o     o .             +X^.R.f.l.V t <.N e P 2.r r V T.].^           O.@ . .   o     o   ",
"      o o   o   o                 ; Z.(.E.s.l.t J B B V t J 6.Q.`.Z.          X ] X . . . .     o   ",
"o o       o   o . o o o o             b >XW.H.l.C 0 t r B j. X`.m.&             . X . . . .         ",
"      o o   o   .   o   O . . .         & C.Q. X X9.8.9.c. XQ. .          . X       X .   o o     o ",
"  o     o o   o . o   o . . . .           . X. X Xc.Q./.`.&X^           . . X X X . . . o   o   o   ",
"    o     o   o o   o   o   o . X             q N..X'.].=X(                 o o       o       o o   ",
"o   o   o   o     o o o o . . o . X             . | m.m .                 o   o o   o   o o         ",
"o       o o   o o   o     o   o   .                               X X   o     o   o o o o o o     o ",
"    o             o   o         . .                                 . .   o   o             o     o ",
"  o   o       o o       o       o         o                       X .         o     o o   o   o     ",
"      o   o       o o     o o   o   o                           .   . . o                     o   o "
};
