/* XPM */
static char *_646507638662[] = {
/* columns rows colors chars-per-pixel */
"50 50 157 2 ",
"   c #030305",
".  c #02030A",
"X  c #000013",
"o  c #00001B",
"O  c #081018",
"+  c #17181D",
"@  c #232A1B",
"#  c #000022",
"$  c #00002C",
"%  c #1B1D21",
"&  c #000033",
"*  c #00003C",
"=  c #051A31",
"-  c #2B003E",
";  c #232529",
":  c #504D00",
">  c #6E6E00",
",  c #000040",
"<  c #000049",
"1  c #14004E",
"2  c #001B55",
"3  c #111B5F",
"4  c #152743",
"5  c #0E2150",
"6  c #2A2F48",
"7  c #2B3246",
"8  c #363C45",
"9  c #640050",
"0  c #650065",
"q  c #434845",
"w  c #4C4D45",
"e  c #5B5B5E",
"r  c #5C604A",
"t  c #67624D",
"y  c #6A6A4C",
"u  c #777545",
"i  c #79794C",
"p  c #4F597E",
"a  c #656468",
"s  c #787868",
"d  c #871461",
"f  c #B1007D",
"g  c #A61B72",
"h  c #868207",
"j  c #938B00",
"k  c #9F9800",
"l  c #ACA400",
"z  c #B0A900",
"x  c #B8AE00",
"c  c #BBB300",
"v  c #8A8938",
"b  c #909137",
"n  c #999739",
"m  c #B3AC28",
"M  c #B4B02E",
"N  c #A9A435",
"B  c #B2AE32",
"V  c #BBB635",
"C  c #B8B239",
"Z  c #C3BB00",
"A  c #C3BA26",
"S  c #C2BD34",
"D  c #D9CF00",
"F  c #DCD500",
"G  c #E3DA00",
"H  c #E9DE00",
"J  c #EDE500",
"K  c #F0E600",
"L  c #F2E901",
"P  c #F9EF00",
"I  c #F0E608",
"U  c #FEF500",
"Y  c #FFFB00",
"T  c #FFF80B",
"R  c #EFE515",
"E  c #EFE51C",
"W  c #F2E915",
"Q  c #F1E71D",
"!  c #FFFC14",
"~  c #D2CA27",
"^  c #DAD42A",
"/  c #CBC436",
"(  c #CEC73A",
")  c #D0C938",
"_  c #D9D234",
"`  c #D9D139",
"'  c #EEE526",
"]  c #EFE62C",
"[  c #F4EB24",
"{  c #F3EA2B",
"}  c #FCF324",
"|  c #EEE436",
" . c #E7E13C",
".. c #EDE539",
"X. c #EFE93A",
"o. c #F0E737",
"O. c #F3EA36",
"+. c #F1E738",
"@. c #F4EB39",
"#. c #F8EF38",
"$. c #FBF234",
"%. c #FFFA33",
"&. c #FDF33A",
"*. c #FFFB3B",
"=. c #858348",
"-. c #8E8D4C",
";. c #989647",
":. c #9D9B4C",
">. c #A5A24C",
",. c #A8A54E",
"<. c #ACAA48",
"1. c #BBB648",
"2. c #A6A054",
"3. c #BAB355",
"4. c #B4AF62",
"5. c #A6A078",
"6. c #C2BC49",
"7. c #C9C244",
"8. c #D4CE44",
"9. c #DCD446",
"0. c #DFD840",
"q. c #E1D846",
"w. c #ECE542",
"e. c #E7E048",
"r. c #F3EB49",
"t. c #FFFC57",
"y. c #C8C164",
"u. c #FAF361",
"i. c #FFFF6D",
"p. c #F4F075",
"a. c #FFFF75",
"s. c #8C8788",
"d. c #B6AF8F",
"f. c #AAA591",
"g. c #B2AC97",
"h. c #ACA9AC",
"j. c #A8A6B7",
"k. c #B2B0BF",
"l. c #BCB8BC",
"z. c #C3BF87",
"x. c #C2BE99",
"c. c #C9C495",
"v. c #F8F691",
"b. c #FEFD9B",
"n. c #C3C0A9",
"m. c #C8C4B4",
"M. c #FDFDA3",
"N. c #CFCDCC",
"B. c #DEDACF",
"V. c #CDCBD1",
"C. c #D5D4D7",
"Z. c #E6E4DC",
"A. c #E9E6EA",
"S. c #F6F6EA",
"D. c #F6F3F3",
"F. c #FFFFF5",
"G. c #FFFFFE",
/* pixels */
"  . O     +     +       O                   . O               O               O   O                 ",
"                              O   +       .             .               .                   O     + ",
".   O         O                     +   .                               . O     O   +   +           ",
".       +         O       +                                                                         ",
"              O                   O                           . 6             .           O +   +   ",
"  +             O     +                                       < j.        .                         ",
"      O             O   . .                                 & 8.<.            . +                   ",
"+           +             ;                   $ =.u.a.i.&.n _ %.` &                   +   +         ",
"                          +               w $.t.b.M.M.b.u.$.$.$.&.*.$                       +       ",
"                                      $ $.%.$.u.v.p.r.r.O.{ O.@.&...u             O             O   ",
"                                    > Y T Q [ { ] ' E ' | { ..+.@.&.0.X             +   O       +   ",
"                                  t 2.z U P W [ E E ' ' ] | | | +.&.&.6.                      O     ",
"        h.l.                  s.G.s.G.Z.x K K K J J J R ' | | | O.+.&.*.4               +           ",
"                            o G.G.G.G.G.C.D K K J J K J K ' ] | | +.+.&.@.            .             ",
"                            B.G.G.F.G.G.G.x G N n.n.5.D K K ' | | ..+.&.*.7         .               ",
"                            S.G.F.F.F.G.G.l f.G.G.G.k.A.h K I ' | ..+.@.&...            O         + ",
"                            c.G.G.G.G.G.m.j G.G.F.F.N.G.k.c K ' | | | @.&.*.#             . .       ",
"+     O     .             c l m.G.G.x.f.c z.G.G.F.F.F.G.G.: K Q ] | | O.#.*.*   8 o           O +   ",
"          O .           # ! U J A y.k H K z.G.G.F.F.F.F.G.3.K R | | | o.#.&.i   .                   ",
"                        <.%.! U U U G L P l G.G.F.F.F.G.G.l K Q | | | ..O.&.,.                      ",
"  +       . . .       X *.*.~ M @ 4.^ U U P 5.G.G.G.G.G.g.J J ' | | | ..O.*.6.                      ",
"                      * *./ v     . 3 s 1.U U M m.C.V.d.D J R ] | | | ..O.&.)                       ",
"          .           1.*.( X           & 5 ` Y L J J Z F I ' | ..| | o.#.&.7.                      ",
"+     O             . *.*.(                   > G Z c J Q ' | | | | | o.#.&.>.                  D.a ",
"      +             & *.*.C =         9 d o     m } [ { O.| | | | | | +.#.&.i                       ",
"                    w *.&.| V n y s 2 . X g -   v V O.O.| ..| | | | | +.@.*.*                       ",
"  +                 >.&.&.&.&. .$.%.$.s <   f # b B $.+.| | | | | | ..X.&.*.&         .             ",
"                    #.&.+.+.O.O.#.$.$.%.:.p 1 0 / ` O...| | | | ..| +.+.&.*.                        ",
"      . .           *.&.@.o.....O.O.O.$.^ N u N S #.O.| | | | | ..| o.#.&.;.                        ",
"    O     .         &.$.@.O.....| | o.O.O.$._ ] O.O...| | | | ....o.O.#.*.&               O O       ",
"O                   8.&.@.o.| | | | | o.O.O.O.O.O.....| | | | | | o.O.&.&.          .       O       ",
"      .             -.&.@.o.| | | | | | | | | O.....| | | |  ...| ..#.&.y         .           .     ",
"          .         8 *.#.o.| | .. .| | | | o.| | |  .o...| | ..o.@.&.*.o           O       O   O   ",
"O   +   . .         * *.#.O...| | ..| | | |  ...| | | | | | | +.o.#.&.-.              .             ",
"  O                 X *.&.@.....| | | | | | ..| | | | | | | ....#.&.*.#             .         O     ",
"          .           ;.*.#.O.o.| .. .| | ..| ..| | |  .....+.#.&.&.q         . .       +           ",
"                      o &.&.#.+...| | | | | | | | | ..| | +.+.#.&.<.              O           O   + ",
"+         O             , / &.+.+.o.| | .. .| | |  .| | +.+.&.&.e.X         .                       ",
"          +               q &.#.....| | | | ..+.o.| ..@.@.&.&.q.o                                   ",
"      +                   $ *.#.X.+.+.+...| ....o.+.+.#.&.&.9.o               .   + +       +     + ",
"    +   +                 & *.$.#.@.O.O.#.+.+.@.#.#.&.&.*.;.                                        ",
"              O           o *.*.&.&.&.&.&.&.#.&.&.&.*.7.&                   O                       ",
"+                           -.*.*.w.r -.9.%.*.$.1.y $                                             O ",
"      O                       & $                                         O                         ",
"                ; ;                                                 .   .             O             ",
"    O         O                                               .   .     .   O       % Z.e         O ",
"@       O       .   .                                                                 q             ",
"%         . .           .       .           .   .             +     O .                           . ",
"      +                 +     O             +     O     +       O         +                         ",
"            +                         +                             O                               "
};
