/* XPM */
static char *_646507683602[] = {
/* columns rows colors chars-per-pixel */
"50 50 163 2 ",
"   c #020203",
".  c #02020A",
"X  c #050808",
"o  c #17000E",
"O  c #000015",
"+  c #01001C",
"@  c #0A001F",
"#  c #0E1315",
"$  c #141619",
"%  c #191B1F",
"&  c #15181B",
"*  c #010024",
"=  c #0A002A",
"-  c #0C0024",
";  c #15002B",
":  c #180029",
">  c #170E22",
",  c #150032",
"<  c #350023",
"1  c #20172A",
"2  c #230033",
"3  c #2A0239",
"4  c #2C1039",
"5  c #271633",
"6  c #30193C",
"7  c #202326",
"8  c #28292E",
"9  c #222429",
"0  c #2E2836",
"q  c #32273F",
"w  c #362E3D",
"e  c #460025",
"r  c #2D531F",
"t  c #226F00",
"y  c #336F00",
"u  c #396F00",
"i  c #2D7500",
"p  c #357500",
"a  c #347A00",
"s  c #3B7B0D",
"d  c #3E7614",
"f  c #374F2D",
"g  c #2F5E29",
"h  c #39582D",
"j  c #394A3A",
"k  c #376926",
"l  c #39692C",
"z  c #3F712E",
"x  c #4A7E00",
"c  c #407816",
"v  c #447F1F",
"b  c #455E3D",
"n  c #406F2E",
"m  c #457D21",
"M  c #47722F",
"N  c #48772F",
"B  c #4C7E2F",
"V  c #5E7D2E",
"C  c #476A33",
"Z  c #486E36",
"A  c #4C673F",
"S  c #466839",
"D  c #446238",
"F  c #467530",
"G  c #4A7532",
"H  c #4C7C32",
"J  c #4C7139",
"K  c #517E35",
"L  c #527633",
"P  c #362640",
"I  c #392A43",
"U  c #353240",
"Y  c #3E3647",
"T  c #3F3A47",
"R  c #413B47",
"E  c #423B4A",
"W  c #424147",
"Q  c #454D46",
"!  c #45444A",
"~  c #49444C",
"^  c #474A4A",
"/  c #494C4D",
"(  c #4B5D45",
")  c #4B534A",
"_  c #4D4552",
"`  c #535C50",
"'  c #4B6740",
"]  c #576A4D",
"[  c #5B6956",
"{  c #677B5A",
"}  c #5F5E61",
"|  c #646368",
" . c #7B787C",
".. c #821748",
"X. c #3A8300",
"o. c #418400",
"O. c #468B00",
"+. c #459200",
"@. c #4C9400",
"#. c #539500",
"$. c #559900",
"%. c #589A00",
"&. c #48841B",
"*. c #578E1B",
"=. c #599113",
"-. c #478022",
";. c #4B8424",
":. c #4E8826",
">. c #4E822F",
",. c #50852F",
"<. c #528A2E",
"1. c #5A8F2F",
"2. c #5D922F",
"3. c #4F8230",
"4. c #528531",
"5. c #5B8234",
"6. c #548A31",
"7. c #598C31",
"8. c #5C9031",
"9. c #698F29",
"0. c #62962F",
"q. c #649B2E",
"w. c #699E2F",
"e. c #63963A",
"r. c #68913B",
"t. c #669836",
"y. c #67A12E",
"u. c #6BA12E",
"i. c #76B120",
"p. c #6DA531",
"a. c #6FA834",
"s. c #70AA32",
"d. c #6A844F",
"f. c #678450",
"g. c #738F56",
"h. c #77965E",
"j. c #6E8262",
"k. c #799167",
"l. c #8DC632",
"z. c #8BA357",
"x. c #8E907A",
"c. c #909377",
"v. c #93A860",
"b. c #99A86E",
"n. c #827C82",
"m. c #8D9F8B",
"M. c #939195",
"N. c #9FB499",
"B. c #A4AD84",
"V. c #ABB38A",
"C. c #ADB391",
"Z. c #A8A4A6",
"A. c #ADA8AD",
"S. c #A8BAAB",
"D. c #A3AFB0",
"F. c #A6B2B3",
"G. c #BAC299",
"H. c #CCD0AB",
"J. c #C8CAA6",
"K. c #EBE9E9",
"L. c #FFFFE2",
"P. c white",
"I. c #EEF2CE",
/* pixels */
"        X X       X   X       X     o                                         X       X           X ",
"    X         X         X                                                     X   X     X   X       ",
"              X   X       X                                                 X   X   X   X           ",
"X   X   X   X       X X                     + R Q Q T 2                               X     X   X   ",
"X         X       X           .           q w.;.&.;.:.<.A O   > R                         X o     X ",
"            X     X X                   * l.i.,.r.*.&.;.:.J   _ M.          X     X X               ",
"    X     X         .   X               b 7.D.S.C.F.m.m ;.<.Q             X   X                     ",
"X                       X 9           * &.v =.$.$.$.h.G m :.,.O                 X   X       X       ",
"                        X %           U X.O.a O.+.@.#.X.c ;.6.T               X X   X               ",
"                                      j i C.L.V.x H.H.V a ;.>.b                         X   X X X   ",
"                                      f 5.  L.L.x.L.  x.i -.>.4.              X     X           X   ",
"        .                             f p I.L.G.b.L.L.B.i &.,.7.+                         X X       ",
"        Z.M.          X               k X.y 9.t X.z.v.p s -.>.6.2         X         X       X X     ",
"                        X             B r 5.%.y #.O.d d -.>.,.6.6                         X       o ",
"                                    @ h   0 [ f.j *     M ,.,.<.I                             X   X ",
"                          X         5 n           e o   f ,.<.<.R                       X           ",
"                                    w 3.h w :       ..< C ,.,.<.R                                 X ",
"    o           X X   X             T 6.6.5.g.k.j.{ d.L B >.,.<.R               | #                 ",
"  X         X                       T z <.p.u.u.y.u.q.>.>.>.,.<.Y               #                   ",
"      X           X X               E 3.:.u.u.u.y.y.2.;.>.>.,.<.Y                                   ",
"X X     X           X               ~ <.>.0.q.q.w.u.6.B >.>.>.<.Y                                   ",
"      X         X   X               R >.>.q.w.w.w.w.B B B >.4.<.Y           .                       ",
"X       X   X   X                   ! <.>.q.y.w.w.q.B B B >.,.<.R                                   ",
"      X               X             ) >.B q.w.w.w.6.B B >.>.6.6.~             X                 K.` ",
"    X     o     X     X             b >.H u.w.w.q.B B B B >.M <.!                 X                 ",
"  X                 X               F :.,.u.w.w.7.B B B B 5.4.<.Y             X                     ",
"        X   X     X   X             ,.>.<.w.w.w.B B B B 3.5.4.6.P               X                   ",
"  X       X       X             A.n.<.>.7.w.w.w.4.B B B B >.,.6.3                                   ",
"X                                 R M B 0.u.q.w.5.B B B >.>.4.6.-           X   X X     X           ",
"          X   X X   X             Q ,.B w.w.p.w.<.B B 3.3.>.4.6.                      X       X     ",
"    X   X                         D :.B w.w.w.u.7.B B >.>.,.6.Z   O       X X   X     X   X         ",
"o             X                 O 6.>.H w.w.w.w.>.B B >.>.>.4.(   1               X         X       ",
"    X   X                       P 6.>.B q.y.w.7.B B B B B ,.4.^             X   X                 . ",
"    X         X   X             ( 4.>.H u.w.w.4.B B B B ,.,.6.P           X           X o   X       ",
"X       X                     O 6.4.4.H u.q.w.B B B ,.B ,.4.<.*                 X             X   X ",
"      X     X X   X X         q 4.4.H >.w.p.0.B B B B ,.,.4.G             X   X           X       X ",
"    X                         ^ 6.>.B w.u.u.4.B B B B ,.,.6.)                           X   X     X ",
"  X                           ( n >.,.u.u.0.B B K ,.B ,.,.6.P               X     X             X   ",
"              o   X           S K ,.7.u.p.5.B B B B ,.,.5.4..           X   .     o         X       ",
"  X   X   X                   H ,.K n p.w.B B B B ,.,.B l )                   X       X   X     X   ",
"  X   X X         X         + 6.4.4.H 6.>.B B B B 4.4.G 4.;                                         ",
"            X               2 6.4.>.B B B B B B >.4.K 6.(           X X X                       X   ",
"  X   X   X                 2 6.,.>.>.B B B B ,.>.4.g 6.4                                           ",
"      X       .   .         * 6.4.B F F B B B B >.4.6.A             X     X                         ",
"        X       7 %           H 4.7.e.t.w.3.B >.,.4.6.2           X                                 ",
"                              ` e.4.p.p.p.u.8.<.6.6.W                 X               P.n.          ",
"8       X                     + e.s.p.u.p.u.a.p.a.^                   X                .            ",
"$           X                   ; ] a.s.a.a.s.] =                 X                                 ",
"              X                       * , ; +                   X       X                           ",
"        X       X   X                                                 X     X                       "
};
